<?xml version="1.0" encoding="UTF-8"?>
<svg height="600" width="800" xmlns="http://www.w3.org/2000/svg" xmlns:xlink="http://www.w3.org/1999/xlink">
    <g id="Notes" font-family="'LucidaGrande', 'Lucida Grande', sans-serif" font-size="13">
        <rect fill="white" height="600.0" width="800.0" x="0.0" y="0.0" />
        <g font-size="13">
            <text x="18.0" y="176.0">Small</text>
            <text x="18.0" y="376.0">Medium</text>
            <text x="18.0" y="576.0">Large</text>
        </g>
        <g font-size="9">
            <text x="250.0" y="30.0">Ultralight</text>
            <text x="450.0" y="30.0">Regular</text>
            <text x="650.0" y="30.0">Black</text>
            <text id="template-version" fill="#505050" text-anchor="end" x="785.0" y="575.0">Template v.3.0</text>
            <a href="https://wangchujiang.com/#/app">
                <text fill="#505050" text-anchor="end" x="785.0" y="590.0">https://wangchujiang.com/#/app</text>
            </a>
        </g>
    </g>
    <g id="Guides" stroke="rgb(39, 170, 225)" stroke-width="0.5">
        <path id="Capline-S" d="M18,76 l800,0" />
        <path id="H-reference" d="M85,145.755 L87.685,145.755 L113.369,79.287 L114.052,79.287 L114.052,76 L112.148,76 L85,145.755 Z M95.693,121.536 L130.996,121.536 L130.263,119.313 L96.474,119.313 L95.693,121.536 Z M139.15,145.755 L141.787,145.755 L114.638,76 L113.466,76 L113.466,79.287 L139.15,145.755 Z" stroke="none" />
        <path id="Baseline-S" d="M18,146 l800,0" />
        <path id="left-margin-Ultralight-S" d="M220,56 l0,110" />
        <path id="right-margin-Ultralight-S" d="M310,56 l0,110" />
        <path id="left-margin-Regular-S" d="M420,56 l0,110" />
        <path id="right-margin-Regular-S" d="M510,56 l0,110" />
        <path id="left-margin-Black-S" d="M620,56 l0,110" />
        <path id="right-margin-Black-S" d="M710,56 l0,110" />
        <path id="Capline-M" d="M18,276 l800,0" />
        <path id="Baseline-M" d="M18,346 l800,0" />
        <path id="Capline-L" d="M18,476 l800,0" />
        <path id="Baseline-L" d="M18,546 l800,0" />
    </g>
    <g id="Symbols">
        <g id="Ultralight-S">
            <path d="M265,76 C245.67,76 230,91.67 230,111 C230,130.33 245.67,146 265,146 C284.33,146 300,130.33 300,111 C300,91.67 284.33,76 265,76 Z M265,141 C248.431,141 235,127.569 235,111 C235,94.431 248.431,81 265,81 C281.569,81 295,94.431 295,111 C295,127.569 281.569,141 265,141 Z" />
            <path d="M267.5,91.078 L260,91.078 L257.5,91.078 C256.119,91.078 254.922,92.119 254.922,93.5 L254.922,96 L254.922,111 L254.922,116 L254.922,128.5 C254.922,129.881 256.041,131 257.422,131 C258.803,131 259.922,129.881 259.922,128.5 L259.922,116.078 L267.5,116.078 C274.404,116.078 280,110.482 280,103.578 C280,96.675 274.404,91.078 267.5,91.078 Z M275,103.578 C275,107.714 271.636,111.078 267.5,111.078 L259.922,111.078 L259.922,111 L259.922,96.078 L260,96.078 L260,96 L267.5,96 C271.642,96 275,99.358 275,103.5 C275,103.513 275,103.526 275,103.539 C275,103.552 275,103.565 275,103.578 Z" />
        </g>
        <g id="Regular-S">
            <path d="M465,76 C445.67,76 430,91.67 430,111 C430,130.33 445.67,146 465,146 C484.33,146 500,130.33 500,111 C500,91.67 484.33,76 465,76 Z M465,141 C448.431,141 435,127.569 435,111 C435,94.431 448.431,81 465,81 C481.569,81 495,94.431 495,111 C495,127.569 481.569,141 465,141 Z" />
            <path d="M467.5,91.078 L460,91.078 L457.5,91.078 C456.119,91.078 454.922,92.119 454.922,93.5 L454.922,96 L454.922,111 L454.922,116 L454.922,128.5 C454.922,129.881 456.041,131 457.422,131 C458.803,131 459.922,129.881 459.922,128.5 L459.922,116.078 L467.5,116.078 C474.404,116.078 480,110.482 480,103.578 C480,96.675 474.404,91.078 467.5,91.078 Z M475,103.578 C475,107.714 471.636,111.078 467.5,111.078 L459.922,111.078 L459.922,111 L459.922,96.078 L460,96.078 L460,96 L467.5,96 C471.642,96 475,99.358 475,103.5 C475,103.513 475,103.526 475,103.539 C475,103.552 475,103.565 475,103.578 Z" />
        </g>
        <g id="Black-S">
            <path d="M665,76 C645.67,76 630,91.67 630,111 C630,130.33 645.67,146 665,146 C684.33,146 700,130.33 700,111 C700,91.67 684.33,76 665,76 Z M665,141 C648.431,141 635,127.569 635,111 C635,94.431 648.431,81 665,81 C681.569,81 695,94.431 695,111 C695,127.569 681.569,141 665,141 Z" />
            <path d="M667.5,91.078 L660,91.078 L657.5,91.078 C656.119,91.078 654.922,92.119 654.922,93.5 L654.922,96 L654.922,111 L654.922,116 L654.922,128.5 C654.922,129.881 656.041,131 657.422,131 C658.803,131 659.922,129.881 659.922,128.5 L659.922,116.078 L667.5,116.078 C674.404,116.078 680,110.482 680,103.578 C680,96.675 674.404,91.078 667.5,91.078 Z M675,103.578 C675,107.714 671.636,111.078 667.5,111.078 L659.922,111.078 L659.922,111 L659.922,96.078 L660,96.078 L660,96 L667.5,96 C671.642,96 675,99.358 675,103.5 C675,103.513 675,103.526 675,103.539 C675,103.552 675,103.565 675,103.578 Z" />
        </g>
    </g>
</svg>